<svg xmlns="http://www.w3.org/2000/svg" viewBox="0 0 1600 1000" width="1600" height="1000"><rect width="1600" height="1000" fill="#131313"/><line x1="0" y1="80" x2="1600" y2="80" stroke="#2a2a2a" stroke-width="2"/><line x1="0" y1="160" x2="1600" y2="160" stroke="#2a2a2a" stroke-width="2"/><line x1="0" y1="240" x2="1600" y2="240" stroke="#2a2a2a" stroke-width="2"/><line x1="0" y1="320" x2="1600" y2="320" stroke="#2a2a2a" stroke-width="2"/><line x1="0" y1="400" x2="1600" y2="400" stroke="#2a2a2a" stroke-width="2"/><line x1="0" y1="480" x2="1600" y2="480" stroke="#2a2a2a" stroke-width="2"/><line x1="0" y1="560" x2="1600" y2="560" stroke="#2a2a2a" stroke-width="2"/><line x1="0" y1="640" x2="1600" y2="640" stroke="#2a2a2a" stroke-width="2"/><line x1="0" y1="720" x2="1600" y2="720" stroke="#2a2a2a" stroke-width="2"/><line x1="0" y1="800" x2="1600" y2="800" stroke="#2a2a2a" stroke-width="2"/><line x1="0" y1="880" x2="1600" y2="880" stroke="#2a2a2a" stroke-width="2"/><line x1="0" y1="960" x2="1600" y2="960" stroke="#2a2a2a" stroke-width="2"/>
    <path d="M0 700 C 300 600, 500 820, 800 700 S 1300 560, 1600 680 V1000 H0Z" fill="#001c70"/>
    <path d="M0 820 C 300 740, 600 900, 900 820 S 1350 740, 1600 800 V1000 H0Z" fill="#80ccff" opacity=".85"/>
    <path d="M200 380 C 500 220, 800 520, 1100 300 S 1400 200, 1480 260" stroke="#ffe980" stroke-width="8" stroke-dasharray="4 22" stroke-linecap="round" fill="none"/>
    <circle cx="200" cy="380" r="46" fill="#ff5200" opacity=".25"/><circle cx="200" cy="380" r="18" fill="#ff5200"/><circle cx="640" cy="360" r="46" fill="#ff5200" opacity=".25"/><circle cx="640" cy="360" r="18" fill="#ffe980"/><circle cx="1100" cy="300" r="46" fill="#ff5200" opacity=".25"/><circle cx="1100" cy="300" r="18" fill="#8aed92"/><circle cx="1480" cy="260" r="46" fill="#ff5200" opacity=".25"/><circle cx="1480" cy="260" r="18" fill="#dfbeff"/></svg>