<svg xmlns="http://www.w3.org/2000/svg" viewBox="0 0 1600 1000" width="1600" height="1000"><rect width="1600" height="1000" fill="#80ccff"/><rect x="140" y="130" width="1320" height="740" rx="28" fill="#f7f6f3"/><circle cx="184" cy="170" r="9" fill="#c6002a"/><circle cx="214" cy="170" r="9" fill="#ffe980"/><circle cx="244" cy="170" r="9" fill="#8aed92"/>
    <g transform="translate(230 260)"><rect width="270" height="290" rx="26" fill="#dfbeff"/><circle cx="135" cy="125" r="50" fill="#131313" opacity=".85"/><rect y="320" width="200" height="22" rx="11" fill="#131313"/><rect y="360" width="120" height="22" rx="11" fill="#edebe4"/></g><g transform="translate(540 260)"><rect width="270" height="290" rx="26" fill="#ffc2c6"/><circle cx="135" cy="125" r="60" fill="#131313" opacity=".85"/><rect y="320" width="200" height="22" rx="11" fill="#131313"/><rect y="360" width="120" height="22" rx="11" fill="#edebe4"/></g><g transform="translate(850 260)"><rect width="270" height="290" rx="26" fill="#ffe980"/><circle cx="135" cy="125" r="70" fill="#131313" opacity=".85"/><rect y="320" width="200" height="22" rx="11" fill="#131313"/><rect y="360" width="120" height="22" rx="11" fill="#edebe4"/></g><g transform="translate(1160 260)"><rect width="270" height="290" rx="26" fill="#8aed92"/><circle cx="135" cy="125" r="80" fill="#131313" opacity=".85"/><rect y="320" width="200" height="22" rx="11" fill="#131313"/><rect y="360" width="120" height="22" rx="11" fill="#edebe4"/></g>
    <rect x="230" y="700" width="260" height="70" rx="35" fill="#131313"/></svg>